<?xml version="1.0" encoding="UTF-8"?>
<!DOCTYPE svg PUBLIC "-//W3C//DTD SVG 1.1//EN" "http://www.w3.org/Graphics/SVG/1.1/DTD/svg11.dtd">
<svg xmlns="http://www.w3.org/2000/svg" version="1.1" width="51px" height="51px" style="shape-rendering:geometricPrecision; text-rendering:geometricPrecision; image-rendering:optimizeQuality; fill-rule:evenodd; clip-rule:evenodd" xmlns:xlink="http://www.w3.org/1999/xlink">
<g><path style="opacity:0.944" fill="#b4d3e5" d="M 7.5,6.5 C 6.54885,7.91866 6.21552,9.58533 6.5,11.5C 5.16667,11.5 3.83333,11.5 2.5,11.5C 3.83333,11.5 5.16667,11.5 6.5,11.5C 6.21552,9.58533 6.54885,7.91866 7.5,6.5 Z"/></g>
<g><path style="opacity:0.94" fill="#2f2f2f" d="M 7.5,6.5 C 15.1667,6.5 22.8333,6.5 30.5,6.5C 30.5,8.16667 30.5,9.83333 30.5,11.5C 36.5,11.5 42.5,11.5 48.5,11.5C 48.1489,14.9032 47.4822,18.2365 46.5,21.5C 41.1667,21.5 35.8333,21.5 30.5,21.5C 30.5,19.8333 30.5,18.1667 30.5,16.5C 22.5,16.5 14.5,16.5 6.5,16.5C 6.5,15.1667 6.5,13.8333 6.5,12.5C 4.90097,12.2322 3.56764,12.5655 2.5,13.5C 1.16667,12.8333 1.16667,12.1667 2.5,11.5C 3.83333,11.5 5.16667,11.5 6.5,11.5C 6.21552,9.58533 6.54885,7.91866 7.5,6.5 Z"/></g>
<g><path style="opacity:1" fill="#bad4e3" d="M 6.5,16.5 C 6.5,16.8333 6.5,17.1667 6.5,17.5C 6.5,20.5 6.5,23.5 6.5,26.5C 6.5,27.8333 6.5,29.1667 6.5,30.5C 5.16667,30.5 3.83333,30.5 2.5,30.5C 2.5,24.8333 2.5,19.1667 2.5,13.5C 3.56764,12.5655 4.90097,12.2322 6.5,12.5C 6.5,13.8333 6.5,15.1667 6.5,16.5 Z"/></g>
<g><path style="opacity:1" fill="#9c3c3c" d="M 6.5,17.5 C 6.5,17.1667 6.5,16.8333 6.5,16.5C 14.5,16.5 22.5,16.5 30.5,16.5C 30.5,18.1667 30.5,19.8333 30.5,21.5C 29.5655,20.4324 29.2322,19.099 29.5,17.5C 21.8333,17.5 14.1667,17.5 6.5,17.5 Z"/></g>
<g><path style="opacity:1" fill="#d33b3a" d="M 6.5,17.5 C 14.1667,17.5 21.8333,17.5 29.5,17.5C 29.2322,19.099 29.5655,20.4324 30.5,21.5C 35.8333,21.5 41.1667,21.5 46.5,21.5C 45.1667,24.8333 45.1667,28.1667 46.5,31.5C 41.1667,31.5 35.8333,31.5 30.5,31.5C 30.5,29.8333 30.5,28.1667 30.5,26.5C 22.5,26.5 14.5,26.5 6.5,26.5C 6.5,23.5 6.5,20.5 6.5,17.5 Z"/></g>
<g><path style="opacity:0.996" fill="#fcba04" d="M 6.5,26.5 C 14.5,26.5 22.5,26.5 30.5,26.5C 30.5,28.1667 30.5,29.8333 30.5,31.5C 30.5,33.1667 30.5,34.8333 30.5,36.5C 28.1667,36.5 25.8333,36.5 23.5,36.5C 18.1667,36.5 12.8333,36.5 7.5,36.5C 6.56552,35.4324 6.23219,34.099 6.5,32.5C 5.16667,32.5 3.83333,32.5 2.5,32.5C 1.16667,31.8333 1.16667,31.1667 2.5,30.5C 3.83333,30.5 5.16667,30.5 6.5,30.5C 6.5,29.1667 6.5,27.8333 6.5,26.5 Z"/></g>
<g><path style="opacity:0.924" fill="#b7d9e8" d="M 2.5,32.5 C 3.83333,32.5 5.16667,32.5 6.5,32.5C 6.23219,34.099 6.56552,35.4324 7.5,36.5C 7.77438,41.263 7.44104,45.9296 6.5,50.5C 5.16667,50.5 3.83333,50.5 2.5,50.5C 2.5,44.5 2.5,38.5 2.5,32.5 Z"/></g>
<g><path style="opacity:0.982" fill="#fd9c00" d="M 30.5,31.5 C 35.8333,31.5 41.1667,31.5 46.5,31.5C 47.3739,34.7893 48.0405,38.1226 48.5,41.5C 40.1667,41.5 31.8333,41.5 23.5,41.5C 23.5,39.8333 23.5,38.1667 23.5,36.5C 25.8333,36.5 28.1667,36.5 30.5,36.5C 30.5,34.8333 30.5,33.1667 30.5,31.5 Z"/></g>
</svg>
