<svg width="24" height="24" viewBox="0 0 24 24" fill="none" xmlns="http://www.w3.org/2000/svg">
<path d="M5.86719 1.58203C2.5216 1.58203 1.49219 2.61144 1.49219 5.95703C1.49219 9.30262 2.5216 10.332 5.86719 10.332C9.21278 10.332 10.2422 9.30262 10.2422 5.95703C10.2422 2.61144 9.21278 1.58203 5.86719 1.58203Z" stroke="#B38E6A" stroke-width="1.5" stroke-linecap="round" stroke-linejoin="round"/>
<path d="M5.86719 13.832C2.5216 13.832 1.49219 14.8614 1.49219 18.207C1.49219 21.5526 2.5216 22.582 5.86719 22.582C9.21278 22.582 10.2422 21.5526 10.2422 18.207C10.2422 14.8614 9.21278 13.832 5.86719 13.832Z" stroke="#B38E6A" stroke-width="1.5" stroke-linecap="round" stroke-linejoin="round"/>
<path d="M18.1172 13.832C14.7716 13.832 13.7422 14.8614 13.7422 18.207C13.7422 21.5526 14.7716 22.582 18.1172 22.582C21.4628 22.582 22.4922 21.5526 22.4922 18.207C22.4922 14.8614 21.4628 13.832 18.1172 13.832Z" stroke="#B38E6A" stroke-width="1.5" stroke-linecap="round" stroke-linejoin="round"/>
<path d="M18.1172 1.58203C14.7716 1.58203 13.7422 2.61144 13.7422 5.95703C13.7422 9.30262 14.7716 10.332 18.1172 10.332C21.4628 10.332 22.4922 9.30262 22.4922 5.95703C22.4922 2.61144 21.4628 1.58203 18.1172 1.58203Z" stroke="#B38E6A" stroke-width="1.5" stroke-linecap="round" stroke-linejoin="round"/>
</svg>
